# xmcd
#
# Track frame offsets:
#	150
#	27559
#	88118
#	96148
#	138688
#	206475
#
# Disc length: 3365 seconds
#
# Revision: 1
# Processed by: cddbd v1.5.1PL0 Copyright (c) Steve Scherf et al.
# Submitted via: CDmax 2.0
#
DISCID=520d2306
DTITLE=Allman Brothers Band - Darien Lake, NY June 22, 1996 (Set 3)
DYEAR=1996
DGENRE=Blues
TTITLE0=No One to Run With
TTITLE1=Back Where It All Begins
TTITLE2=Franklin's Tower Jam >
TTITLE3=Blue Sky
TTITLE4=Dreams
TTITLE5=Whipping Post
EXTD=
EXTT0=
EXTT1=
EXTT2=
EXTT3=
EXTT4=
EXTT5=
PLAYORDER=
